<?xml version="1.0" encoding="utf-8"?>
<!-- Generator: Adobe Illustrator 18.1.0, SVG Export Plug-In . SVG Version: 6.00 Build 0)  -->
<!DOCTYPE svg PUBLIC "-//W3C//DTD SVG 1.1//EN" "http://www.w3.org/Graphics/SVG/1.1/DTD/svg11.dtd">
<svg version="1.1" id="Layer_1" xmlns="http://www.w3.org/2000/svg" xmlns:xlink="http://www.w3.org/1999/xlink" x="0px" y="0px"
	 viewBox="0 0 310 95" enable-background="new 0 0 310 95" xml:space="preserve">
<rect stroke="#000000" stroke-miterlimit="10" width="310" height="95"/>
<g>
	<path fill="#FFFFFF" d="M56.5,32.3h7.3c3.4,0,5.9,0.5,7.4,1.5s2.3,2.6,2.3,4.8c0,1.5-0.4,2.8-1.3,3.8s-2.1,1.6-3.7,1.9v0.2
		c3.9,0.7,5.9,2.7,5.9,6.2c0,2.3-0.8,4.1-2.3,5.4S68.3,58,65.5,58h-9V32.3z M59.5,43.4h4.9c2.1,0,3.6-0.3,4.6-1s1.4-1.8,1.4-3.3
		c0-1.4-0.5-2.5-1.5-3.1s-2.7-1-4.9-1h-4.4V43.4z M59.5,45.9v9.6h5.4c2.1,0,3.6-0.4,4.7-1.2s1.6-2.1,1.6-3.8c0-1.6-0.5-2.8-1.6-3.5
		s-2.7-1.1-4.9-1.1H59.5z"/>
	<path fill="#FFFFFF" d="M83,38.8v12.5c0,1.6,0.4,2.7,1.1,3.5s1.8,1.2,3.4,1.2c2,0,3.5-0.6,4.4-1.7s1.4-2.9,1.4-5.4V38.8h2.9V58
		h-2.4l-0.4-2.6h-0.2c-0.6,0.9-1.4,1.7-2.5,2.2s-2.3,0.8-3.6,0.8c-2.3,0-4.1-0.6-5.3-1.7s-1.7-2.9-1.7-5.3V38.8H83z"/>
	<path fill="#FFFFFF" d="M100.2,38.8h3.1l4.2,11c0.9,2.5,1.5,4.3,1.7,5.4h0.1c0.2-0.6,0.5-1.6,1-3.1s2.1-5.9,4.8-13.4h3.1L110,60.7
		c-0.8,2.2-1.8,3.7-2.9,4.6s-2.4,1.4-4,1.4c-0.9,0-1.8-0.1-2.6-0.3v-2.3c0.6,0.1,1.4,0.2,2.2,0.2c2,0,3.4-1.1,4.3-3.4l1.1-2.7
		L100.2,38.8z"/>
	<path fill="#FFFFFF" d="M149.2,48.4c0,3.1-0.8,5.6-2.4,7.4s-3.8,2.6-6.6,2.6c-1.7,0-3.3-0.4-4.6-1.2s-2.4-2-3.1-3.5
		s-1.1-3.3-1.1-5.3c0-3.1,0.8-5.6,2.4-7.3s3.8-2.6,6.5-2.6c2.7,0,4.8,0.9,6.4,2.7S149.2,45.3,149.2,48.4z M134.5,48.4
		c0,2.5,0.5,4.3,1.5,5.6s2.4,1.9,4.3,1.9s3.4-0.6,4.4-1.9s1.5-3.2,1.5-5.6c0-2.4-0.5-4.3-1.5-5.6s-2.5-1.9-4.4-1.9
		c-1.9,0-3.4,0.6-4.3,1.9S134.5,45.9,134.5,48.4z"/>
	<path fill="#FFFFFF" d="M168.4,58V45.6c0-1.6-0.4-2.7-1.1-3.5s-1.8-1.2-3.4-1.2c-2,0-3.5,0.5-4.4,1.6s-1.4,2.9-1.4,5.4V58h-2.9
		V38.8h2.4l0.5,2.6h0.1c0.6-0.9,1.4-1.7,2.5-2.2s2.3-0.8,3.6-0.8c2.3,0,4.1,0.6,5.2,1.7s1.8,2.9,1.8,5.4V58H168.4z"/>
	<path fill="#FFFFFF" d="M203.2,58h-14.3V32.3h14.3V35h-11.3v8.3h10.7v2.6h-10.7v9.5h11.3V58z"/>
	<path fill="#FFFFFF" d="M215.6,56c0.5,0,1,0,1.5-0.1s0.9-0.2,1.1-0.2v2.2c-0.3,0.2-0.8,0.3-1.4,0.4s-1.2,0.1-1.7,0.1
		c-3.7,0-5.6-2-5.6-5.9V41h-2.8v-1.4l2.8-1.2l1.2-4.1h1.7v4.5h5.6V41h-5.6v11.3c0,1.2,0.3,2.1,0.8,2.7S214.7,56,215.6,56z"/>
	<path fill="#FFFFFF" d="M235.4,52.8c0,1.8-0.7,3.2-2,4.1s-3.2,1.5-5.6,1.5c-2.6,0-4.5-0.4-6-1.2v-2.7c0.9,0.5,1.9,0.8,3,1.1
		s2.1,0.4,3.1,0.4c1.5,0,2.7-0.2,3.5-0.7s1.2-1.2,1.2-2.2c0-0.8-0.3-1.4-1-1.9s-1.9-1.2-3.8-1.9c-1.8-0.7-3.1-1.3-3.8-1.7
		s-1.3-1.1-1.7-1.7s-0.6-1.4-0.6-2.3c0-1.6,0.6-2.8,1.9-3.7s3-1.4,5.3-1.4c2.1,0,4.1,0.4,6.1,1.3l-1,2.4c-1.9-0.8-3.7-1.2-5.3-1.2
		c-1.4,0-2.4,0.2-3.1,0.7s-1.1,1-1.1,1.8c0,0.5,0.1,1,0.4,1.3s0.7,0.7,1.3,1s1.7,0.8,3.4,1.4c2.3,0.8,3.8,1.7,4.6,2.5
		S235.4,51.5,235.4,52.8z"/>
	<path fill="#FFFFFF" d="M238,38.8h3.1l4.2,11c0.9,2.5,1.5,4.3,1.7,5.4h0.1c0.2-0.6,0.5-1.6,1-3.1s2.1-5.9,4.8-13.4h3.1l-8.3,21.9
		c-0.8,2.2-1.8,3.7-2.9,4.6s-2.4,1.4-4,1.4c-0.9,0-1.8-0.1-2.6-0.3v-2.3c0.6,0.1,1.4,0.2,2.2,0.2c2,0,3.4-1.1,4.3-3.4l1.1-2.7
		L238,38.8z"/>
</g>
</svg>
