<?xml version="1.0" encoding="utf-8"?>
<!-- Generator: Adobe Illustrator 18.1.0, SVG Export Plug-In . SVG Version: 6.00 Build 0)  -->
<!DOCTYPE svg PUBLIC "-//W3C//DTD SVG 1.1//EN" "http://www.w3.org/Graphics/SVG/1.1/DTD/svg11.dtd">
<svg version="1.1" id="Layer_3" xmlns="http://www.w3.org/2000/svg" xmlns:xlink="http://www.w3.org/1999/xlink" x="0px" y="0px"
	 viewBox="-7.1 167.6 596.1 135.4" enable-background="new -7.1 167.6 596.1 135.4" xml:space="preserve">
<g>
	<g id="Layer_2">
		<g enable-background="new    ">
			<path fill="#FFFFFF" d="M351.8,186c10.1,0,16.9,4.7,21.4,9.2l-5.5,6c-3.7-4-8.4-6.9-15.8-6.9c-15.1,0-24.8,11.6-24.8,30.1
				c0,18.7,8.9,30.6,24.8,30.6c5.3,0,10.6-1.7,13.5-4.4v-19.4h-15.8v-7.8h24.4v31.3c-4.9,4.8-13.2,8.6-23.2,8.6
				c-19.5,0-33.5-14.3-33.5-38.6C317.4,200.6,331.8,186,351.8,186z"/>
			<path fill="#FFFFFF" d="M390.6,181h9.3v70.4c0,3,1.2,4.1,2.6,4.1c0.6,0,1,0,2-0.2l1.2,7c-1.2,0.6-2.8,0.9-5.3,0.9
				c-7,0-9.9-4.4-9.9-12.5V181z"/>
			<path fill="#FFFFFF" d="M417.9,189.3c0-3.6,2.8-6,6.5-6c3.6,0,6.5,2.4,6.5,6c0,3.5-2.8,6-6.5,6
				C420.7,195.3,417.9,192.8,417.9,189.3z M419.6,206.6h9.3v55.2h-9.3V206.6z"/>
			<path fill="#FFFFFF" d="M449.1,214.2H441v-7l8.6-0.6l1.1-15.4h7.8v15.4h14.9v7.6h-14.9v30.7c0,6.8,2.2,10.7,8.5,10.7
				c1.9,0,4.4-0.8,6.2-1.5l1.8,7c-3.1,1-6.8,2-10.2,2c-11.8,0-15.8-7.5-15.8-18.4V214.2z"/>
			<path fill="#FFFFFF" d="M507.3,205.3c7.3,0,12.4,3.1,16.1,6.6l-4.7,6c-3.3-2.8-6.7-4.9-11.1-4.9c-10,0-17.3,8.6-17.3,21.4
				c0,12.6,6.9,21.1,17,21.1c5.2,0,9.7-2.6,12.9-5.6l4.2,6.1c-5,4.4-11.4,7.2-17.9,7.2c-14.7,0-25.9-10.6-25.9-28.8
				C480.7,215.8,493.1,205.3,507.3,205.3z"/>
			<path fill="#FFFFFF" d="M536.6,181h9.3v22l-0.3,11.4c5.2-5,10.8-9.1,18.4-9.1c11.6,0,16.8,7.5,16.8,21.6v35h-9.3v-33.7
				c0-10.3-3.2-14.8-10.4-14.8c-5.7,0-9.5,3-15.1,8.5v40h-9.3V181z"/>
		</g>
		<g enable-background="new    ">
			<path fill="#FFFFFF" d="M277.1,255.1h-6l12-17.4l-11.3-17h6.6l8,12.1l8.3-12.1h5.9l-11.2,16.4l11.8,18h-6.6l-8.6-13.1
				L277.1,255.1z"/>
		</g>
	</g>
	<g id="Layer_1">
		<g id="layer1_1_" transform="translate(-246.87378,-507.44547)">
			<g id="g14552_1_" transform="matrix(2.5822081,0,0,2.5822081,-800.83407,-2387.4905)">
				<path id="path7947_1_" fill="#FFFFFF" d="M499.9,1209.9c0.5-0.8,0.6-2.1,0-2.8c-0.5-0.8-1.3-1.1-2.1-0.9
					c-1.4,0.3-2.7,1.1-4.1,1.7c-1.3,0.6-2.7,1.9-4.3,1.1c-0.8-0.6-1.3-1.6-1.1-2.7c-0.2-0.2-0.3-0.2-0.5-0.2c-0.6,0-1.4,0.3-1.7,0.9
					c-0.8,1.4-0.5,3.3,0,4.7c0.5,1.7,1.3,3.3,2.7,4.6c0.5,0.5,1.4,0.5,2.1,0.3c1.9-0.6,3.6-1.4,5.2-2.7c1.1-0.8,2.1-1.6,2.8-2.7
					C499.5,1210.9,499.6,1210.4,499.9,1209.9 M505.3,1209.4c-0.2,0.6-0.3,1.3-0.6,1.9c-0.6,1.4-1.6,2.8-2.5,4.1
					c-1.3,1.4-2.5,2.5-4.1,3.6c-1.9,1.3-3.8,2.2-6,2.7c-1.4,0.3-3.2,0.3-4.4-0.3c-0.9-0.3-1.7-0.9-2.5-1.7c-0.8-0.8-1.4-1.6-1.9-2.5
					h-0.2c-1.4,0.6-3,1.1-4.4,1.6c-1.6,0.5-3.3,0.3-4.4-0.9c-0.2-0.2-0.3-0.5-0.5-0.6h-0.2c-1.4,0.6-2.8,1.3-4.4,1.6
					c-1.1,0.3-2.4,0-3.3-0.6c-0.5-0.3-0.9-0.8-1.1-1.4c-0.3-0.9-0.3-1.9-0.3-2.8c0-1.6,0.2-3.2,0.3-4.7c0-0.2-0.2-0.5-0.3-0.5
					c-0.3-0.2-0.8,0-1.1,0c-0.2,0-0.5,0-0.6,0.2l0,0c-0.6,2.5-1.4,5-2.8,7.4c-0.6,1.1-1.7,2.5-3.2,2.7c-1.7,0.3-3-1.3-3.8-2.5
					c-0.6-0.8-1.1-1.7-1.7-2.5c-0.2-0.2-0.3-0.3-0.5-0.2c-0.2,0-0.3,0.3-0.5,0.5c-0.9,1.6-1.9,3-2.8,4.6c-0.2,0.2-0.5,0.3-0.8,0.3
					s-0.6-0.3-0.8-0.6c-0.8-1.4-1.6-3-2.4-4.6c-0.2-0.2-0.3-0.3-0.5-0.3c-0.2,0.2-0.3,0.3-0.5,0.5c-1.1,1.4-2.2,3-3.5,4.4
					c-0.3,0.3-0.9,0.6-1.4,0.5c-1.1-0.5-1.6-1.7-2.2-2.5c-0.2-0.3-0.3-0.6-0.6-0.9c-0.3-0.2-0.5,0.3-0.6,0.5
					c-0.9,1.1-2.1,2.2-3.3,2.8c-1.7,0.6-3.8,0.2-5-1.1c-0.9-1.1-1.4-2.5-1.6-3.9c-0.2-1.9,0.2-3.8,0.8-5.4c0.8-2.1,2.2-4.3,4.4-5.4
					c1.9-1.3,5-1.3,6.9,0c0.8,0.5,1.4,1.4,1.3,2.4c0,0.8-0.6,1.7-1.6,2.1c-1.3,0.3-2.1-0.6-3.2-0.6c-1.3-0.2-2.2,0.8-2.8,1.7
					c-0.8,1.3-1.3,2.5-1.3,4.1c0,0.5,0.2,0.9,0.6,1.1c0.3,0.2,0.6,0.2,0.8,0c0.8-0.6,1.6-1.6,2.2-2.4c0.6-0.6,1.1-1.6,1.9-2.1
					c0.3-0.2,0.8-0.2,1.3,0c0.6,0.5,0.9,1.1,1.4,1.7c0.3,0.3,0.5,0.9,0.9,1.1c0.3,0,0.5-0.3,0.6-0.3c1.4-1.7,2.7-3.3,3.9-5
					c0.3-0.5,0.9-0.9,1.6-0.8c0.5,0.2,0.8,0.5,0.9,0.8c0.6,0.9,1.3,2.1,1.9,3.2c0.2,0.2,0.2,0.3,0.3,0.3s0.3-0.2,0.5-0.3
					c0.9-1.3,1.6-2.5,2.8-3.6c0.3-0.3,0.8-0.3,1.1-0.2c0.8,0.3,1.1,1.1,1.6,1.7c1.1,1.4,1.9,3,3,4.4c0.2,0.2,0.3,0.2,0.5,0.2
					c0.5-0.2,0.5-0.6,0.8-1.1c0.5-0.9,0.8-1.9,0.9-3c0-0.2,0-0.2-0.2-0.2c-1.3-0.6-1.9-1.7-1.9-3.2c0-1.1,0.8-2.2,1.9-2.7
					c1.1-0.5,2.5-0.5,3.5,0.3c0.5,0.3,0.8,0.9,0.9,1.4l0,0c1.6,0,3.2-0.2,4.7-0.2c0.8,0.2,1.6,0.6,2.1,1.4c0.3,0.8,0.2,1.7,0.2,2.7
					c0,1.4-0.2,2.8-0.2,4.3c0,0.2,0,0.3,0,0.3c0,0.2,0.2,0.3,0.2,0.5c0.3,0.2,0.6,0.2,0.9,0c0.8-0.3,1.6-0.6,2.2-0.9c0,0,0,0,0-0.2
					c0-2.4,0-4.6,0.3-6.8c0.2-0.8,0.8-1.4,1.6-1.6c0.9-0.2,1.9-0.2,2.7,0.5c0.5,0.5,0.5,0.9,0.6,1.4c0,2.2-0.2,4.4-0.2,6.6
					c0,0.3,0.2,0.8,0.5,0.9c0.5,0.2,0.9,0,1.3-0.2c0.5-0.3,1.1-0.5,1.6-0.8c-0.3-2.1-0.5-4.4,0-6.5c0.3-1.9,1.9-3.8,3.6-4.7
					c1.4-0.8,3.5-0.8,4.9-0.2c0.8,0.3,1.4,0.6,2.1,1.1h0.2c2.7-1.3,6.2-2.7,9.1-1.3c2.5,1.1,4.3,3.6,4.3,6.3
					C505.6,1208.2,505.5,1208.8,505.3,1209.4"/>
				<path id="path7951_1_" fill="#FFFFFF" d="M477.5,1202.2c-0.9,0.6-2.4,0.6-3.3,0.2c-0.9-0.5-1.6-1.4-1.6-2.5s0.6-2.1,1.6-2.5
					c1.1-0.5,2.5-0.6,3.5,0.2c0.9,0.6,1.4,1.9,1.1,3C478.6,1201.2,478.2,1201.9,477.5,1202.2"/>
				<path id="path7955_1_" fill="#FFFFFF" d="M422.8,1200.4c-0.8,0.5-1.9,0.5-2.7,0c-0.6-0.5-1.1-1.1-1.9-1.4
					c-1.6-0.8-3.5-0.2-5,0.2c-1.3,0.3-2.5,1.1-3.5,2.1c-0.3,0.3-0.5,0.6-0.3,1.1c0.2,0.5,0.5,0.6,0.9,0.8c0.6,0.3,1.3,0.6,1.9,0.8
					c1.7,0.6,3.5,1.3,5.4,2.1c1.4,0.6,3,1.3,3.9,2.5c0.8,1.1,1.3,2.5,0.9,4.1c-0.3,2.7-2.5,4.9-4.7,6.2c-1.6,1.1-3.5,1.6-5.5,1.7
					c-1.9,0-3.8-0.2-5.4-0.8c-1.3-0.5-2.7-1.6-3.3-2.8c-0.6-1.1-0.8-2.7-0.2-3.9s2.1-1.9,3.5-1.7c0.8,0.2,1.4,0.5,1.7,1.3
					c0.3,0.6,0,1.6,0.3,2.4c0.6,1.3,2.2,1.3,3.6,1.1c1.9-0.3,3.8-1.3,4.7-3c0.2-0.5,0.3-1.1,0-1.6c-0.6-0.8-1.6-0.9-2.5-1.4
					c-2.2-0.8-4.3-1.6-6.5-2.4c-1.9-0.8-4.6-2.1-4.7-4.4c-0.3-2.5,1.1-4.6,3.2-6c2.7-1.7,5.5-2.8,8.7-3.2c2.7-0.3,5.5,0,7.6,1.7
					c0.9,0.8,1.3,2.1,0.9,3.3C423.7,1199.5,423.3,1200.1,422.8,1200.4"/>
			</g>
		</g>
	</g>
</g>
<g>
	<path fill="#FFFFFF" d="M297.5,297.1v-23.3h1.5l0,10.1c0.7-0.9,1.5-1.7,2.4-2.2s2-0.8,3.1-0.8c2,0,3.5,0.7,4.6,2
		c1.1,1.3,1.6,3.4,1.6,6.1c0,1.2-0.2,2.2-0.5,3.3c-0.3,1-0.8,1.9-1.3,2.6s-1.3,1.3-2.2,1.8c-0.9,0.4-1.9,0.6-3,0.6
		c-1.1,0-2.1-0.2-2.9-0.6c-0.8-0.4-1.5-1.1-2.1-1.9l-0.1,2c0,0.3-0.2,0.4-0.4,0.4H297.5z M304.2,282.1c-1.1,0-2,0.3-2.9,0.8
		c-0.9,0.5-1.6,1.3-2.3,2.3v8.4c0.6,0.9,1.3,1.6,2,1.9c0.7,0.4,1.6,0.6,2.5,0.6c0.9,0,1.8-0.2,2.5-0.5c0.7-0.3,1.3-0.8,1.8-1.4
		s0.8-1.4,1.1-2.2c0.2-0.9,0.4-1.8,0.4-2.9c0-2.4-0.4-4.1-1.3-5.2C307.1,282.7,305.8,282.1,304.2,282.1z"/>
	<path fill="#FFFFFF" d="M318,302.2c-0.1,0.1-0.1,0.3-0.2,0.4c-0.1,0.1-0.2,0.1-0.4,0.1h-1.1l2.8-6.2l-6.7-15.3h1.3
		c0.2,0,0.3,0,0.4,0.1c0.1,0.1,0.2,0.2,0.2,0.3l5.4,12.4c0.1,0.2,0.1,0.3,0.2,0.5c0,0.2,0.1,0.3,0.1,0.5c0.1-0.2,0.1-0.3,0.2-0.5
		c0.1-0.2,0.1-0.3,0.2-0.5l5.3-12.4c0.1-0.1,0.1-0.2,0.2-0.3c0.1-0.1,0.2-0.1,0.3-0.1h1.2L318,302.2z"/>
	<path fill="#FFFFFF" d="M338.2,274.5c0.1,0,0.2,0.1,0.3,0.2l14.7,19.6c0-0.3,0-0.6,0-0.9v-19h1.4v22.6h-0.8c-0.2,0-0.4-0.1-0.6-0.3
		l-14.7-19.6c0,0.3,0,0.6,0,0.9v19.1h-1.4v-22.6h0.8C338,274.4,338.2,274.4,338.2,274.5z"/>
	<path fill="#FFFFFF" d="M361.6,281.1v10.2c0,1.5,0.3,2.7,1,3.5c0.7,0.8,1.7,1.3,3.1,1.3c1,0,2-0.3,2.9-0.8c0.9-0.5,1.7-1.3,2.4-2.2
		v-12h1.5v15.9h-0.8c-0.3,0-0.4-0.1-0.5-0.4l-0.1-2.4c-0.7,0.9-1.6,1.7-2.6,2.2s-2,0.8-3.2,0.8c-0.9,0-1.7-0.1-2.3-0.4
		s-1.2-0.7-1.6-1.2c-0.4-0.5-0.8-1.2-1-1.9c-0.2-0.7-0.3-1.6-0.3-2.5v-10.2H361.6z"/>
	<path fill="#FFFFFF" d="M379.5,273.8V288h0.7c0.1,0,0.3,0,0.4-0.1c0.1,0,0.3-0.1,0.4-0.3l6.4-6.1c0.1-0.1,0.2-0.2,0.4-0.3
		c0.1-0.1,0.3-0.1,0.5-0.1h1.3l-7,6.7c-0.1,0.1-0.2,0.2-0.3,0.3c-0.1,0.1-0.2,0.2-0.3,0.2c0.2,0.1,0.3,0.2,0.4,0.3s0.2,0.2,0.4,0.4
		l7.4,8h-1.3c-0.1,0-0.3,0-0.4-0.1c-0.1-0.1-0.2-0.2-0.4-0.3l-6.7-7.2c-0.2-0.2-0.3-0.3-0.5-0.4s-0.4-0.1-0.7-0.1h-0.7v8H378v-23.3
		H379.5z"/>
	<path fill="#FFFFFF" d="M398.6,280.9c0.9,0,1.7,0.2,2.5,0.5s1.4,0.8,2,1.4c0.6,0.6,1,1.3,1.3,2.2s0.5,1.9,0.5,3
		c0,0.2,0,0.4-0.1,0.5c-0.1,0.1-0.2,0.1-0.3,0.1h-11.5v0.3c0,1.2,0.1,2.2,0.4,3.2c0.3,0.9,0.7,1.7,1.2,2.3c0.5,0.6,1.1,1.1,1.9,1.4
		s1.5,0.5,2.4,0.5c0.8,0,1.5-0.1,2.1-0.3c0.6-0.2,1.1-0.4,1.5-0.6c0.4-0.2,0.7-0.4,1-0.6c0.2-0.2,0.4-0.3,0.5-0.3
		c0.1,0,0.2,0.1,0.3,0.2l0.4,0.5c-0.3,0.3-0.6,0.6-1,0.9c-0.4,0.3-0.9,0.5-1.4,0.7c-0.5,0.2-1.1,0.4-1.7,0.5s-1.2,0.2-1.8,0.2
		c-1.1,0-2.1-0.2-3-0.6c-0.9-0.4-1.7-0.9-2.3-1.7c-0.6-0.7-1.1-1.6-1.5-2.7s-0.5-2.3-0.5-3.6c0-1.1,0.2-2.2,0.5-3.2
		c0.3-1,0.8-1.8,1.4-2.5c0.6-0.7,1.4-1.2,2.3-1.6S397.5,280.9,398.6,280.9z M398.6,282c-0.8,0-1.6,0.1-2.2,0.4
		c-0.7,0.3-1.2,0.6-1.7,1.1c-0.5,0.5-0.9,1.1-1.2,1.7s-0.5,1.4-0.6,2.3h10.5c0-0.9-0.1-1.6-0.4-2.3c-0.2-0.7-0.6-1.2-1-1.7
		s-0.9-0.8-1.5-1.1C400,282.2,399.4,282,398.6,282z"/>
	<path fill="#FFFFFF" d="M409,297.1v-15.9h0.8c0.3,0,0.4,0.1,0.5,0.4l0.1,2.3c0.3-0.4,0.6-0.8,1-1.2s0.7-0.7,1.1-0.9
		c0.4-0.3,0.8-0.5,1.3-0.6c0.5-0.1,0.9-0.2,1.4-0.2c1.2,0,2.1,0.3,2.8,1c0.7,0.7,1.2,1.6,1.4,2.8c0.2-0.7,0.5-1.2,0.8-1.7
		c0.3-0.5,0.7-0.9,1.2-1.2c0.4-0.3,0.9-0.5,1.5-0.7c0.5-0.2,1.1-0.2,1.6-0.2c0.8,0,1.5,0.1,2.1,0.4c0.6,0.3,1.2,0.6,1.6,1.2
		c0.4,0.5,0.8,1.1,1,1.9c0.2,0.7,0.4,1.6,0.4,2.6v10.2h-1.5v-10.2c0-1.6-0.3-2.7-1-3.6c-0.7-0.8-1.6-1.2-2.9-1.2
		c-0.6,0-1.1,0.1-1.6,0.3c-0.5,0.2-1,0.5-1.3,0.9c-0.4,0.4-0.7,0.9-0.9,1.5s-0.3,1.3-0.3,2.1v10.2h-1.5v-10.2c0-1.5-0.3-2.7-0.9-3.6
		c-0.6-0.8-1.5-1.2-2.7-1.2c-0.9,0-1.7,0.3-2.4,0.8s-1.4,1.2-2,2.2v12H409z"/>
	<path fill="#FFFFFF" d="M440.4,280.9c0.9,0,1.7,0.2,2.5,0.5s1.4,0.8,2,1.4c0.6,0.6,1,1.3,1.3,2.2s0.5,1.9,0.5,3
		c0,0.2,0,0.4-0.1,0.5c-0.1,0.1-0.2,0.1-0.3,0.1h-11.5v0.3c0,1.2,0.1,2.2,0.4,3.2c0.3,0.9,0.7,1.7,1.2,2.3c0.5,0.6,1.1,1.1,1.9,1.4
		s1.5,0.5,2.4,0.5c0.8,0,1.5-0.1,2.1-0.3c0.6-0.2,1.1-0.4,1.5-0.6c0.4-0.2,0.7-0.4,1-0.6c0.2-0.2,0.4-0.3,0.5-0.3
		c0.1,0,0.2,0.1,0.3,0.2l0.4,0.5c-0.3,0.3-0.6,0.6-1,0.9c-0.4,0.3-0.9,0.5-1.4,0.7c-0.5,0.2-1.1,0.4-1.7,0.5s-1.2,0.2-1.8,0.2
		c-1.1,0-2.1-0.2-3-0.6c-0.9-0.4-1.7-0.9-2.3-1.7c-0.6-0.7-1.1-1.6-1.5-2.7s-0.5-2.3-0.5-3.6c0-1.1,0.2-2.2,0.5-3.2
		c0.3-1,0.8-1.8,1.4-2.5c0.6-0.7,1.4-1.2,2.3-1.6S439.3,280.9,440.4,280.9z M440.4,282c-0.8,0-1.6,0.1-2.2,0.4
		c-0.7,0.3-1.2,0.6-1.7,1.1c-0.5,0.5-0.9,1.1-1.2,1.7s-0.5,1.4-0.6,2.3h10.5c0-0.9-0.1-1.6-0.4-2.3c-0.2-0.7-0.6-1.2-1-1.7
		s-0.9-0.8-1.5-1.1C441.8,282.2,441.2,282,440.4,282z"/>
	<path fill="#FFFFFF" d="M467.1,297.1c-0.3,0-0.5-0.1-0.6-0.4l-0.2-2c-0.4,0.4-0.9,0.8-1.3,1.2c-0.4,0.3-0.9,0.6-1.4,0.9
		c-0.5,0.2-1,0.4-1.5,0.5c-0.5,0.1-1.1,0.2-1.8,0.2c-0.5,0-1.1-0.1-1.6-0.2c-0.5-0.2-1-0.4-1.4-0.7c-0.4-0.3-0.7-0.8-1-1.3
		c-0.2-0.5-0.4-1.1-0.4-1.9c0-0.7,0.2-1.3,0.6-1.9c0.4-0.6,1-1.1,1.8-1.5c0.8-0.4,1.9-0.8,3.2-1c1.3-0.3,2.8-0.4,4.6-0.4v-1.7
		c0-1.5-0.3-2.6-1-3.4c-0.6-0.8-1.6-1.2-2.8-1.2c-0.8,0-1.4,0.1-2,0.3c-0.5,0.2-1,0.4-1.4,0.7c-0.4,0.3-0.7,0.5-0.9,0.7
		c-0.2,0.2-0.4,0.3-0.6,0.3c-0.2,0-0.4-0.1-0.5-0.3l-0.3-0.5c0.8-0.8,1.7-1.5,2.6-1.9c0.9-0.4,2-0.6,3.1-0.6c0.9,0,1.6,0.1,2.2,0.4
		c0.6,0.3,1.2,0.7,1.6,1.2c0.4,0.5,0.7,1.1,1,1.8c0.2,0.7,0.3,1.5,0.3,2.4v10.4H467.1z M460.7,296.2c0.6,0,1.2-0.1,1.7-0.2
		s1-0.3,1.4-0.6c0.4-0.2,0.9-0.5,1.2-0.9c0.4-0.3,0.8-0.7,1.1-1.1v-4.1c-1.5,0-2.8,0.2-3.9,0.3s-2,0.4-2.7,0.8s-1.2,0.7-1.6,1.1
		c-0.3,0.4-0.5,0.9-0.5,1.5c0,0.5,0.1,1,0.3,1.4c0.2,0.4,0.4,0.7,0.7,1c0.3,0.3,0.6,0.4,1,0.6C459.9,296.2,460.3,296.2,460.7,296.2z
		"/>
	<path fill="#FFFFFF" d="M472.5,297.1v-15.9h0.8c0.3,0,0.4,0.1,0.5,0.4l0.1,2.4c0.7-0.9,1.6-1.7,2.5-2.2c1-0.6,2-0.8,3.2-0.8
		c0.9,0,1.6,0.1,2.3,0.4c0.7,0.3,1.2,0.7,1.7,1.2c0.4,0.5,0.8,1.2,1,1.9c0.2,0.7,0.3,1.6,0.3,2.5v10.2h-1.5v-10.2
		c0-1.5-0.3-2.7-1-3.5c-0.7-0.8-1.7-1.3-3.1-1.3c-1,0-2,0.3-2.9,0.8c-0.9,0.5-1.7,1.3-2.4,2.2v11.9H472.5z"/>
	<path fill="#FFFFFF" d="M501.1,297.1c-0.3,0-0.4-0.1-0.5-0.4l-0.2-2.5c-0.7,1-1.5,1.7-2.5,2.3s-2,0.8-3.2,0.8c-2,0-3.5-0.7-4.6-2
		s-1.6-3.4-1.6-6.1c0-1.2,0.2-2.2,0.5-3.3s0.8-1.9,1.3-2.6s1.3-1.3,2.2-1.8c0.9-0.4,1.9-0.6,3-0.6c1.1,0,2,0.2,2.8,0.6
		c0.8,0.4,1.5,1,2.1,1.8v-9.4h1.5v23.3H501.1z M495.3,296c1.1,0,2-0.3,2.9-0.8s1.6-1.3,2.3-2.3v-8.4c-0.6-0.9-1.3-1.5-2-1.9
		c-0.7-0.4-1.6-0.6-2.5-0.6c-0.9,0-1.8,0.2-2.5,0.5c-0.7,0.3-1.3,0.8-1.8,1.4c-0.5,0.6-0.8,1.4-1.1,2.2s-0.4,1.8-0.4,2.9
		c0,2.4,0.4,4.1,1.3,5.2C492.4,295.5,493.6,296,495.3,296z"/>
	<path fill="#FFFFFF" d="M522.6,295.9c1.1,0,2.1-0.2,2.9-0.6c0.9-0.4,1.6-0.9,2.2-1.6c0.6-0.7,1.1-1.5,1.4-2.4
		c0.3-0.9,0.5-1.9,0.5-3v-14h1.6v14c0,1.2-0.2,2.4-0.6,3.5c-0.4,1.1-1,2-1.7,2.8c-0.7,0.8-1.6,1.4-2.7,1.9c-1.1,0.5-2.3,0.7-3.6,0.7
		c-1.3,0-2.5-0.2-3.6-0.7c-1.1-0.5-2-1.1-2.7-1.9c-0.7-0.8-1.3-1.8-1.7-2.8c-0.4-1.1-0.6-2.2-0.6-3.5v-14h1.6v14c0,1.1,0.2,2,0.5,3
		c0.3,0.9,0.8,1.7,1.4,2.4s1.3,1.2,2.2,1.6S521.5,295.9,522.6,295.9z"/>
	<path fill="#FFFFFF" d="M547.4,283.3c-0.1,0.1-0.1,0.1-0.2,0.1c0,0-0.1,0.1-0.2,0.1c-0.1,0-0.3-0.1-0.4-0.2
		c-0.2-0.1-0.4-0.3-0.7-0.5s-0.7-0.3-1.2-0.5c-0.5-0.1-1-0.2-1.7-0.2c-0.9,0-1.7,0.2-2.4,0.5c-0.7,0.3-1.3,0.8-1.8,1.4
		c-0.5,0.6-0.9,1.3-1.1,2.2s-0.4,1.8-0.4,2.9c0,1.1,0.1,2.1,0.4,3c0.3,0.9,0.6,1.6,1.1,2.2c0.5,0.6,1.1,1,1.7,1.4s1.4,0.5,2.3,0.5
		c0.8,0,1.4-0.1,1.9-0.3c0.5-0.2,0.9-0.4,1.3-0.6c0.3-0.2,0.6-0.4,0.8-0.6c0.2-0.2,0.4-0.3,0.5-0.3c0.1,0,0.2,0.1,0.3,0.2l0.4,0.5
		c-0.2,0.3-0.6,0.6-0.9,0.9c-0.4,0.3-0.8,0.5-1.3,0.7c-0.5,0.2-1,0.4-1.5,0.5c-0.5,0.1-1.1,0.2-1.7,0.2c-1,0-1.9-0.2-2.8-0.6
		c-0.8-0.4-1.6-0.9-2.2-1.6c-0.6-0.7-1.1-1.6-1.4-2.6s-0.5-2.2-0.5-3.5c0-1.2,0.2-2.3,0.5-3.3c0.3-1,0.8-1.9,1.4-2.6
		s1.4-1.3,2.3-1.7c0.9-0.4,1.9-0.6,3.1-0.6c1,0,2,0.2,2.8,0.5c0.8,0.3,1.5,0.8,2.1,1.3L547.4,283.3z"/>
	<path fill="#FFFFFF" d="M551.5,297.1v-15.9h0.8c0.3,0,0.4,0.1,0.5,0.4l0.1,2.4c0.7-0.9,1.6-1.7,2.5-2.2c1-0.6,2-0.8,3.2-0.8
		c0.9,0,1.6,0.1,2.3,0.4c0.7,0.3,1.2,0.7,1.7,1.2c0.4,0.5,0.8,1.2,1,1.9c0.2,0.7,0.3,1.6,0.3,2.5v10.2h-1.5v-10.2
		c0-1.5-0.3-2.7-1-3.5c-0.7-0.8-1.7-1.3-3.1-1.3c-1,0-2,0.3-2.9,0.8c-0.9,0.5-1.7,1.3-2.4,2.2v11.9H551.5z"/>
	<path fill="#FFFFFF" d="M574.3,297.1h-1.3l-6.7-15.9h1.2c0.1,0,0.3,0,0.4,0.1s0.2,0.2,0.2,0.3l5.2,12.6c0.1,0.2,0.2,0.5,0.2,0.7
		c0.1,0.2,0.1,0.4,0.2,0.7c0.1-0.2,0.1-0.5,0.2-0.7c0.1-0.2,0.1-0.5,0.2-0.7l5.3-12.6c0.1-0.1,0.1-0.2,0.2-0.3
		c0.1-0.1,0.2-0.1,0.3-0.1h1.2L574.3,297.1z"/>
</g>
</svg>
